<?xml version="1.0" standalone="no"?>
<!DOCTYPE svg PUBLIC "-//W3C//DTD SVG 1.1//EN" "http://www.w3.org/Graphics/SVG/1.1/DTD/svg11.dtd" >
<svg xmlns="http://www.w3.org/2000/svg" xmlns:xlink="http://www.w3.org/1999/xlink" version="1.1" viewBox="-10 0 1034 1024">
   <path fill="currentColor"
d="M864 618q-15 0 -23.5 8.5t-8.5 23.5v195q0 7 -6 13t-13 6h-602q-7 0 -13 -6t-6 -13v-195q0 -15 -8.5 -23.5t-23.5 -8.5t-23.5 8.5t-8.5 23.5v195q1 34 25 58t58 25h602q34 -1 58 -25t25 -58v-195q0 -15 -8.5 -23.5t-23.5 -8.5zM957 317l-106 -205q-9 -15 -29 -16h-640
q-10 0 -18 6.5t-10 15.5l-84 208q-4 6 -4 14l1 12v80q2 62 44 103.5t103 43.5h42q73 -1 112 -45q19 22 51.5 33.5t73.5 11.5h41q41 0 73.5 -11.5t51.5 -33.5q20 20 48 31t64 11h42q61 -2 103 -43.5t44 -103.5v-83v-14q-1 -10 -3 -15zM205 160h598l67 128h-720zM813 512h-42
q-18 2 -49 -9t-34 -55q0 -15 -8.5 -23.5t-23.5 -8.5t-23.5 8.5t-8.5 23.5v13q-4 37 -40.5 46.5t-52.5 7.5h-41q-17 2 -53 -7.5t-40 -46.5v-10q0 -14 -9 -23t-23.5 -9t-23 9t-8.5 23q-2 36 -26.5 50.5t-56.5 13.5h-39q-34 -1 -58 -24.5t-25 -58.5v-80h768v77q-1 34 -23.5 58
t-59.5 25z" />
</svg>
